Coordinates
version=1
nRows=11
nColumns=36
inDegrees=yes

Units are S.I. units (second, meters, Newtons, ...)
If the header above contains a line with 'inDegrees', this indicates whether rotational values are in degrees (yes) or radians (no).

endheader
time	pelvis_tilt	pelvis_list	pelvis_rotation	pelvis_tx	pelvis_ty	pelvis_tz	hip_flexion_r	hip_adduction_r	hip_rotation_r	knee_angle_r	knee_angle_r_beta	ankle_angle_r	subtalar_angle_r	mtp_angle_r	hip_flexion_l	hip_adduction_l	hip_rotation_l	knee_angle_l	knee_angle_l_beta	ankle_angle_l	subtalar_angle_l	mtp_angle_l	lumbar_extension	lumbar_bending	lumbar_rotation	arm_flex_r	arm_add_r	arm_rot_r	elbow_flex_r	pro_sup_r	arm_flex_l	arm_add_l	arm_rot_l	elbow_flex_l	pro_sup_l
      1.28333330	    -10.39682695	      1.68499926	     -2.54544643	     -0.01000010	      1.17243079	     -0.08377107	     12.96114779	     -4.02581544	     -4.12521309	     20.64033082	      0.36024173	     15.48992174	    -11.04864113	     -7.49999876	     19.02009539	     -1.51981311	     -7.34544014	     27.72453771	      0.48388447	     12.45367296	    -17.68378288	     -7.49999876	     -8.30695374	     -0.82532018	     -3.19893333	    -19.86182158	    -22.56987980	     11.82874061	     61.45388219	     70.10731171	    -21.27464184	    -19.64304779	      9.16038081	     57.52740617	     70.93439894
      1.30000000	    -10.65882131	      1.53286500	     -2.63503123	     -0.01034023	      1.16827041	     -0.08608334	     14.21599505	     -4.01480330	     -3.38504638	     22.94126845	      0.40040067	     16.33423847	    -12.12128652	     -7.49999882	     20.14930609	     -1.42773995	     -6.35888525	     30.07727709	      0.52494752	     13.49198223	    -19.21929608	     -7.49999882	     -8.49448466	     -0.70117123	     -2.98615678	    -19.69529494	    -22.53922813	     12.01988651	     61.89582377	     69.45108868	    -21.06440452	    -19.39646424	      9.23864465	     58.14200504	     69.98448739
      1.31666670	    -10.42651207	      1.51938649	     -2.62157342	     -0.00631455	      1.16670458	     -0.08807321	     14.89599914	     -4.13376685	     -2.57681368	     25.33596719	      0.44219605	     17.46752603	    -12.97245505	     -7.49999889	     20.76029716	     -1.12908757	     -5.42316505	     32.21176458	      0.56220135	     14.04235690	    -20.78157101	     -7.49999889	     -9.11225845	     -0.82114845	     -3.21793511	    -17.80015668	    -22.57010338	     14.26473549	     60.54232465	     70.28541726	    -19.63113494	    -19.19603828	     10.58366942	     56.52089290	     69.82549596
      1.33333330	    -10.44324546	      1.49976705	     -2.69435339	     -0.00113161	      1.16193420	     -0.08952606	     15.92967357	     -4.19465646	     -1.79537129	     27.93799695	      0.48761003	     19.07660420	    -13.66897153	     -7.49999897	     21.49742941	     -0.90283408	     -4.72626565	     34.25558891	      0.59787281	     15.30915932	    -21.52643027	     -7.49999897	     -9.29898413	     -0.97041323	     -3.76964382	    -15.36778080	    -22.46696158	     17.12429781	     58.88434887	     72.15011757	    -18.34007411	    -19.03865416	     11.78013641	     55.60639285	     69.70200669
      1.35000000	    -10.14313712	      1.46452495	     -2.77555639	      0.00327777	      1.15615179	     -0.09101114	     16.87948014	     -4.18444639	     -0.87443394	     31.06118522	      0.54211995	     20.95486505	    -14.67427810	     -7.49999898	     21.94276388	     -0.64883934	     -3.87313423	     36.26619208	      0.63296446	     16.40310979	    -22.60411305	     -7.49999898	    -10.30637738	     -1.12805441	     -3.83570021	    -13.40109537	    -21.49550761	     17.78317819	     57.77386653	     72.37743817	    -16.22990133	    -18.73195363	     12.05928968	     54.95848101	     69.65987436
      1.36666670	     -9.93692434	      1.46135699	     -2.81782371	      0.01599038	      1.15175501	     -0.09443938	     17.80258861	     -4.29221468	     -0.21043323	     34.22590966	      0.59735481	     22.47234797	    -15.27936548	     -7.49999914	     22.17894793	     -0.26021854	     -2.96130837	     38.02275987	      0.66362235	     17.31347763	    -23.51190568	     -7.49999914	    -10.59491768	     -1.29529549	     -4.36891582	    -10.57042790	    -20.67058752	     20.28578454	     55.10314892	     72.29690011	    -13.69899619	    -18.54759092	     13.84490062	     52.98956572	     68.95156429
      1.38333330	     -9.50276948	      1.54757313	     -2.84297997	      0.02154711	      1.14535151	     -0.09682061	     18.50133480	     -4.46671371	      0.44531355	     37.55904382	      0.65552898	     24.00342908	    -16.06933319	     -7.49999916	     22.02952381	      0.20003258	     -2.31890829	     39.52751926	      0.68988536	     18.51878531	    -24.24099905	     -7.49999916	    -11.46552488	     -1.57477818	     -4.58180703	     -8.07314339	    -19.49272064	     21.34142386	     53.50634760	     72.59526524	    -10.77339438	    -18.55760559	     14.61421131	     52.52078550	     68.99862569
      1.40000000	     -8.88708289	      1.53773031	     -2.55158854	      0.03907016	      1.13201564	     -0.09781329	     18.40799730	     -4.61106426	      0.92776061	     40.72716557	      0.71082313	     25.64556977	    -16.90440303	     -7.49999918	     21.46375188	      0.56452302	     -1.67688551	     41.51356755	      0.72454844	     19.92842437	    -25.25002878	     -7.49999918	    -12.14675981	     -1.66589478	     -4.92604178	     -6.44301317	    -18.35848575	     21.62875151	     53.43435812	     72.58284289	     -8.17694388	    -18.52857735	     14.61670906	     53.01285947	     68.97272388
      1.41666670	     -8.27430136	      1.78707759	     -2.18181626	      0.04926365	      1.12786988	     -0.10125605	     18.26985230	     -5.29336372	      0.71411802	     44.22509452	      0.77187351	     27.48574549	    -16.65927191	     -7.49999920	     20.14447399	      1.16192400	     -1.46048101	     42.30656258	      0.73838881	     21.03417352	    -26.18964253	     -7.49999920	    -12.43331718	     -2.13888438	     -5.23918705	     -4.58613567	    -17.14518442	     22.61383513	     52.60244955	     73.02836816	     -5.13266760	    -19.32925858	     16.20980419	     54.67673110	     69.44459548
      1.43333330	     -7.64218844	      1.98115837	     -1.66524451	      0.05787780	      1.12070577	     -0.10074058	     18.04833027	     -5.82691982	      0.56115963	     47.61611564	      0.83105799	     29.18704897	    -16.72461513	     -7.49999923	     18.55728348	      1.66196366	     -1.10303251	     42.58735233	      0.74328952	     22.44168393	    -26.73368880	     -7.49999923	    -12.51038367	     -2.58794994	     -5.64597551	     -3.45551605	    -16.13645220	     22.78790950	     54.13641159	     73.53383976	     -2.15738729	    -20.47593111	     16.92542081	     58.04785538	     70.03742839
      1.45000000	     -6.91596299	      2.19305699	     -1.06538180	      0.07928902	      1.12296048	     -0.09949302	     17.21180956	     -6.41754583	      0.19435182	     50.66047759	      0.88419213	     29.12434070	    -16.87424669	     -7.49999925	     15.77659153	      1.93711368	     -1.11331486	     41.49453604	      0.72421628	     22.96240011	    -26.55645193	     -7.49999925	    -12.24684093	     -3.18370179	     -5.84968620	     -2.82724993	    -14.98594694	     22.74129523	     56.65185398	     73.92869167	      0.84913461	    -21.62230539	     16.93181556	     62.04251364	     70.54980698
